<svg width="45" height="34" viewBox="0 0 45 34" fill="none" xmlns="http://www.w3.org/2000/svg">
<path d="M44.3875 16.2876C44.2717 16.1162 44.1151 15.9762 43.9319 15.8802C43.7486 15.7842 43.5444 15.7352 43.3375 15.7376C42.3276 15.5974 41.4011 15.1008 40.725 14.3376C39.4241 12.9156 38.3186 11.3266 37.4375 9.61256L41.0375 3.98756C41.256 3.66159 41.3898 3.28634 41.4269 2.8957C41.464 2.50506 41.4032 2.11133 41.25 1.75006C41.0966 1.42139 40.8647 1.13549 40.5748 0.917514C40.2849 0.699539 39.9459 0.55618 39.5875 0.50006C37.2982 0.191535 34.9681 0.515758 32.85 1.43756C31.6361 1.97225 30.4939 2.65673 29.45 3.47506C27.4055 2.55828 25.2284 1.97182 23 1.73756C14.1375 0.87506 6.03753 6.62506 5.00003 14.2501C4.5957 14.0682 4.23357 13.8042 3.93663 13.475C3.63968 13.1458 3.41438 12.7585 3.27503 12.3376C3.1859 12.049 3.15547 11.7454 3.18553 11.4449C3.21558 11.1443 3.30552 10.8528 3.45003 10.5876C3.57962 10.3649 3.76483 10.1797 3.98753 10.0501C4.13937 9.95813 4.27162 9.8372 4.37672 9.69417C4.48183 9.55113 4.55773 9.3888 4.60009 9.21643C4.64246 9.04406 4.65046 8.86503 4.62364 8.68957C4.59682 8.51411 4.5357 8.34565 4.44378 8.19381C4.35185 8.04197 4.23092 7.90972 4.08789 7.80462C3.94485 7.69951 3.78251 7.62361 3.61015 7.58124C3.43778 7.53888 3.25875 7.53087 3.08329 7.5577C2.90783 7.58452 2.73937 7.64563 2.58753 7.73756C1.98243 8.10897 1.48308 8.62984 1.13753 9.25006C0.816257 9.83214 0.614298 10.4724 0.543469 11.1335C0.47264 11.7946 0.534364 12.4631 0.725028 13.1001C0.959714 13.8719 1.3489 14.5879 1.86892 15.2046C2.38894 15.8213 3.02895 16.3259 3.75003 16.6876L4.90003 17.2626C5.04369 20.3054 5.81842 23.2851 7.17503 26.0126L7.38753 26.4876C8.47171 28.7805 9.85454 30.9199 11.5 32.8501C11.6172 32.9834 11.7614 33.0903 11.923 33.1635C12.0846 33.2368 12.26 33.2748 12.4375 33.2751H18.0875C18.2923 33.274 18.4936 33.2228 18.6739 33.1257C18.8541 33.0286 19.0078 32.8888 19.1214 32.7185C19.2349 32.5481 19.3049 32.3525 19.3252 32.1487C19.3454 31.945 19.3153 31.7394 19.2375 31.5501L18.75 30.4251L20.225 30.5876C21.8876 30.7519 23.5624 30.7519 25.225 30.5876C25.6875 31.3376 26.1875 32.0876 26.7375 32.8251C26.8526 32.9826 27.003 33.111 27.1767 33.2C27.3503 33.289 27.5424 33.3361 27.7375 33.3376H33.1625C33.3688 33.3374 33.5719 33.2862 33.7536 33.1884C33.9353 33.0907 34.09 32.9495 34.2039 32.7775C34.3177 32.6054 34.3873 32.4079 34.4062 32.2024C34.4252 31.997 34.393 31.79 34.3125 31.6001C34.1 31.1001 33.8875 30.5626 33.725 30.1001C33.5 29.4376 33.325 28.8501 33.1875 28.2876C34.568 27.5423 35.835 26.6036 36.95 25.5001C38.1955 25.6506 39.4546 25.6506 40.7 25.5001C40.9161 25.4674 41.1199 25.3786 41.2909 25.2426C41.462 25.1067 41.5944 24.9282 41.675 24.7251L44.5 17.4626C44.5795 17.2726 44.6108 17.0659 44.5912 16.8609C44.5716 16.656 44.5016 16.459 44.3875 16.2876ZM39.6625 23.0876C38.6812 23.1434 37.6968 23.0973 36.725 22.9501C35.6184 22.7631 34.5501 22.3957 33.5625 21.8626C33.2701 21.7175 32.9325 21.6927 32.6219 21.7933C32.3114 21.8939 32.0525 22.1121 31.9007 22.401C31.7488 22.69 31.7161 23.0269 31.8094 23.3398C31.9027 23.6526 32.1147 23.9165 32.4 24.0751C32.9224 24.349 33.4609 24.5911 34.0125 24.8001C33.3309 25.382 32.5741 25.8697 31.7625 26.2501L30.4375 26.8501C30.4375 26.8501 31.05 29.5876 31.4625 30.8001H28.4875C28.1875 30.3751 26.675 27.8501 26.675 27.8501L25.8375 27.9626C24.0783 28.2162 22.2958 28.2666 20.525 28.1126C19.7 28.0376 18.325 27.8626 17.25 27.6751L15.3125 27.3376C15.3125 27.3376 16.1 30.3751 16.25 30.7626H13.025C11.7077 29.1495 10.5911 27.3824 9.70003 25.5001L9.47503 25.0126C7.8509 21.8862 7.16505 18.3571 7.50003 14.8501C8.17503 8.36256 15.15 3.46256 22.7375 4.17506C24.9447 4.42248 27.0928 5.0483 29.0875 6.02506L29.8625 6.38756L30.4875 5.80006C31.4609 4.93028 32.561 4.21374 33.75 3.67506C35.3232 2.99273 37.0417 2.71347 38.75 2.86256L34.525 9.47506L34.8375 10.1001C35.9292 12.299 37.3218 14.3352 38.975 16.1501C39.7429 16.9005 40.6522 17.4911 41.65 17.8876L39.6625 23.0876Z" fill="black"/>
</svg>
